<svg width="302" height="63" viewBox="0 0 302 63" fill="none" xmlns="http://www.w3.org/2000/svg">
<path d="M301.477 22.6136L295.136 23.7045C295 22.9015 294.72 22.1439 294.295 21.4318C293.886 20.7197 293.258 20.1439 292.409 19.7045C291.561 19.25 290.432 19.0227 289.023 19.0227C287.068 19.0227 285.356 19.4697 283.886 20.3636C282.432 21.2576 281.598 22.3939 281.386 23.7727C281.189 24.8939 281.455 25.803 282.182 26.5C282.909 27.1818 284.189 27.75 286.023 28.2045L291.386 29.4773C294.477 30.2197 296.689 31.3788 298.023 32.9545C299.371 34.5152 299.841 36.5455 299.432 39.0455C299.083 41.1212 298.174 42.9621 296.705 44.5682C295.25 46.1742 293.386 47.4318 291.114 48.3409C288.841 49.25 286.311 49.7045 283.523 49.7045C279.553 49.7045 276.462 48.8636 274.25 47.1818C272.038 45.5 270.902 43.1212 270.841 40.0455L277.568 39.0455C277.689 40.7576 278.303 42.053 279.409 42.9318C280.53 43.7955 282.083 44.2273 284.068 44.2273C286.341 44.2424 288.242 43.7652 289.773 42.7955C291.303 41.8258 292.174 40.6515 292.386 39.2727C292.568 38.197 292.326 37.303 291.659 36.5909C291.008 35.8788 289.856 35.3333 288.205 34.9545L282.568 33.6591C279.417 32.9167 277.189 31.7197 275.886 30.0682C274.583 28.4167 274.144 26.3409 274.568 23.8409C274.902 21.7955 275.765 20.0152 277.159 18.5C278.568 16.9697 280.348 15.7803 282.5 14.9318C284.652 14.0682 287.03 13.6364 289.636 13.6364C293.439 13.6364 296.295 14.4545 298.205 16.0909C300.114 17.7121 301.205 19.8864 301.477 22.6136Z" fill="#3A5BFF"/>
<path d="M254.972 49L260.79 14.0909H267.585L261.767 49H254.972ZM265.608 8.63636C264.426 8.63636 263.426 8.24242 262.608 7.45454C261.805 6.65151 261.434 5.69697 261.494 4.59091C261.555 3.46969 262.025 2.51515 262.903 1.72727C263.782 0.92424 264.805 0.522724 265.972 0.522724C267.153 0.522724 268.146 0.92424 268.949 1.72727C269.752 2.51515 270.131 3.46969 270.085 4.59091C270.025 5.69697 269.555 6.65151 268.676 7.45454C267.813 8.24242 266.79 8.63636 265.608 8.63636Z" fill="#3A5BFF"/>
<path d="M253.273 14.0909L252.386 19.5455H233.318L234.205 14.0909H253.273ZM240.682 5.72727H247.477L241.977 38.75C241.765 40.0682 241.803 41.0606 242.091 41.7273C242.379 42.3788 242.818 42.8258 243.409 43.0682C244.015 43.2955 244.689 43.4091 245.432 43.4091C245.977 43.4091 246.455 43.3712 246.864 43.2955C247.273 43.2197 247.598 43.1591 247.841 43.1136L248.205 48.7273C247.75 48.8788 247.136 49.0303 246.364 49.1818C245.606 49.3485 244.682 49.4394 243.591 49.4545C241.803 49.4848 240.189 49.1667 238.75 48.5C237.311 47.8182 236.235 46.7879 235.523 45.4091C234.811 44.0152 234.636 42.2652 235 40.1591L240.682 5.72727Z" fill="#3A5BFF"/>
<path d="M208.426 49.7045C205.002 49.7045 202.169 48.9697 199.926 47.5C197.699 46.0152 196.138 43.9318 195.244 41.25C194.35 38.553 194.206 35.3939 194.812 31.7727C195.403 28.197 196.593 25.0455 198.381 22.3182C200.169 19.5909 202.396 17.4621 205.062 15.9318C207.744 14.4015 210.706 13.6364 213.949 13.6364C215.919 13.6364 217.775 13.9621 219.517 14.6136C221.275 15.2652 222.767 16.2879 223.994 17.6818C225.222 19.0758 226.07 20.8864 226.54 23.1136C227.025 25.3258 227.009 28.0151 226.494 31.1818L226.108 33.5909H198.335L199.131 28.5H220.222C220.54 26.7121 220.456 25.1288 219.972 23.75C219.487 22.3561 218.653 21.2576 217.472 20.4545C216.305 19.6515 214.835 19.25 213.063 19.25C211.244 19.25 209.547 19.7273 207.972 20.6818C206.396 21.6364 205.078 22.8561 204.017 24.3409C202.972 25.8106 202.313 27.3258 202.04 28.8864L201.244 33.5455C200.85 36.0909 200.919 38.1364 201.449 39.6818C201.994 41.2273 202.949 42.3485 204.312 43.0455C205.676 43.7424 207.381 44.0909 209.426 44.0909C210.744 44.0909 211.964 43.9091 213.085 43.5455C214.222 43.1667 215.229 42.6136 216.108 41.8864C216.987 41.1439 217.722 40.2197 218.313 39.1136L224.54 40.2727C223.706 42.1667 222.509 43.8258 220.949 45.25C219.388 46.6591 217.547 47.7576 215.426 48.5455C213.32 49.3182 210.987 49.7045 208.426 49.7045Z" fill="#3A5BFF"/>
<path d="M136.932 49L142.75 14.0909H149.273L148.318 19.7727H148.75C149.811 17.8485 151.25 16.3485 153.068 15.2727C154.902 14.1818 156.977 13.6364 159.295 13.6364C161.598 13.6364 163.455 14.1818 164.864 15.2727C166.288 16.3636 167.22 17.8636 167.659 19.7727H168.023C169.144 17.8939 170.712 16.4015 172.727 15.2955C174.742 14.1894 177.008 13.6364 179.523 13.6364C182.659 13.6364 185.068 14.6364 186.75 16.6364C188.447 18.6212 188.962 21.6061 188.295 25.5909L184.386 49H177.568L181.386 26.2273C181.765 23.8485 181.402 22.1364 180.295 21.0909C179.189 20.0303 177.742 19.5 175.955 19.5C173.742 19.5 171.909 20.1818 170.455 21.5455C169 22.8939 168.106 24.6288 167.773 26.75L164.023 49H157.273L161.159 25.7955C161.462 23.8864 161.114 22.3636 160.114 21.2273C159.129 20.0758 157.689 19.5 155.795 19.5C154.508 19.5 153.258 19.8409 152.045 20.5227C150.848 21.2045 149.826 22.1439 148.977 23.3409C148.129 24.5379 147.576 25.9167 147.318 27.4773L143.727 49H136.932Z" fill="#3A5BFF"/>
<path d="M113.21 49.7045C109.892 49.7045 107.119 48.947 104.892 47.4318C102.665 45.9015 101.097 43.7652 100.187 41.0227C99.2936 38.2652 99.142 35.0606 99.733 31.4091C100.309 27.8333 101.468 24.7121 103.21 22.0455C104.968 19.3788 107.165 17.3106 109.801 15.8409C112.453 14.3712 115.4 13.6364 118.642 13.6364C121.96 13.6364 124.725 14.4015 126.938 15.9318C129.165 17.4621 130.733 19.6061 131.642 22.3636C132.551 25.1212 132.71 28.3333 132.119 32C131.544 35.5455 130.369 38.6515 128.597 41.3182C126.839 43.9697 124.642 46.0303 122.006 47.5C119.369 48.9697 116.438 49.7045 113.21 49.7045ZM113.597 44C115.778 44 117.68 43.4242 119.301 42.2727C120.938 41.1212 122.271 39.5909 123.301 37.6818C124.331 35.7727 125.036 33.6818 125.415 31.4091C125.763 29.2121 125.756 27.2045 125.392 25.3864C125.044 23.553 124.286 22.0833 123.119 20.9773C121.953 19.8712 120.331 19.3182 118.256 19.3182C116.074 19.3182 114.157 19.9015 112.506 21.0682C110.869 22.2197 109.536 23.7576 108.506 25.6818C107.491 27.6061 106.801 29.7045 106.437 31.9773C106.089 34.1591 106.089 36.1667 106.437 38C106.786 39.8182 107.544 41.2727 108.71 42.3636C109.877 43.4545 111.506 44 113.597 44Z" fill="#3A5BFF"/>
<path d="M71.3011 62.8182C68.5133 62.8182 66.1799 62.4545 64.3011 61.7273C62.4375 61 60.9678 60.0379 59.892 58.8409C58.8314 57.6439 58.0966 56.3333 57.6875 54.9091L63.9602 52.5C64.2633 53.1667 64.6875 53.8712 65.233 54.6136C65.7784 55.3712 66.589 56.0152 67.6648 56.5455C68.7557 57.0758 70.2481 57.3409 72.142 57.3409C74.7178 57.3409 76.9678 56.7121 78.892 55.4545C80.8163 54.2121 82.0057 52.2273 82.4602 49.5L83.5284 42.6364H83.0966C82.5814 43.3788 81.8693 44.2045 80.9602 45.1136C80.0511 46.0227 78.8769 46.8106 77.4375 47.4773C75.9981 48.1439 74.2102 48.4773 72.0739 48.4773C69.3163 48.4773 66.9375 47.8333 64.9375 46.5455C62.9527 45.2424 61.5284 43.3258 60.6648 40.7955C59.8011 38.25 59.6799 35.1212 60.3011 31.4091C60.9072 27.697 62.0587 24.5152 63.7557 21.8636C65.4678 19.2121 67.5436 17.1818 69.983 15.7727C72.4375 14.3485 75.0663 13.6364 77.8693 13.6364C80.036 13.6364 81.7254 14 82.9375 14.7273C84.1648 15.4394 85.0739 16.2727 85.6648 17.2273C86.2557 18.1818 86.6875 19.0227 86.9602 19.75H87.4602L88.392 14.0909H95.0511L89.142 49.7727C88.6572 52.7727 87.5587 55.2348 85.8466 57.1591C84.1496 59.0833 82.036 60.5076 79.5057 61.4318C76.9905 62.3561 74.2557 62.8182 71.3011 62.8182ZM74.392 42.8409C76.3314 42.8409 78.0587 42.3864 79.5739 41.4773C81.1042 40.553 82.3769 39.2348 83.392 37.5227C84.4072 35.7955 85.1117 33.7273 85.5057 31.3182C85.8996 28.9697 85.8769 26.9015 85.4375 25.1136C85.0133 23.3258 84.1875 21.9318 82.9602 20.9318C81.7481 19.9167 80.1648 19.4091 78.2102 19.4091C76.1496 19.4091 74.3617 19.9394 72.8466 21C71.3314 22.0455 70.0966 23.4697 69.142 25.2727C68.2027 27.0758 67.5436 29.0909 67.1648 31.3182C66.8011 33.6061 66.8087 35.6136 67.1875 37.3409C67.5814 39.0682 68.3693 40.4167 69.5511 41.3864C70.733 42.3561 72.3466 42.8409 74.392 42.8409Z" fill="#3A5BFF"/>
<path d="M58.4318 2.45454L50.7045 49H43.9091L51.6364 2.45454H58.4318Z" fill="#3A5BFF"/>
<path d="M7.57386 49H0.119318L24.5966 2.45454H32.7102L41.733 49H34.2784L27.483 10.9091H27.1193L7.57386 49ZM11.8466 30.7727H36.0284L35.0284 36.6818H10.8466L11.8466 30.7727Z" fill="#3A5BFF"/>
</svg>
